<svg width="338" height="447" viewBox="0 0 338 447" fill="none" xmlns="http://www.w3.org/2000/svg">
<path d="M157.579 2.26192L157.419 50.7926C157.413 52.9089 156.414 54.8994 154.721 56.1698L47.7064 136.495C46.0076 137.77 45.0079 139.77 45.0079 141.894L45.0091 284.088C45.0092 298.216 51.6437 311.525 62.9262 320.029L155.091 389.497C156.691 390.704 158.897 390.707 160.5 389.504L274.588 303.943C285.922 295.443 292.592 282.103 292.592 267.936V238.655C292.592 236.801 290.474 235.742 288.991 236.855L161.169 332.769C159.686 333.882 157.568 332.824 157.568 330.969V282.608C157.568 280.482 158.57 278.48 160.271 277.206L334 147.015C335.484 145.903 337.6 146.962 337.6 148.816V267.951C337.6 296.282 324.261 322.961 301.597 339.961L161.849 444.78C159.446 446.582 156.142 446.58 153.741 444.775L35.9144 356.167C13.3027 339.163 0.00120526 312.517 0.00102871 284.225L1.31822e-10 119.379C-1.32567e-05 117.255 0.999864 115.254 2.69898 113.979L153.978 0.454587C155.464 -0.6607 157.585 0.403811 157.579 2.26192Z" fill="url(#paint0_linear_3793_8039)"/>
<path d="M103.248 194.159C102.503 194.344 101.884 193.571 102.227 192.884L155.779 85.4959C156.203 84.6454 157.484 84.9472 157.484 85.8976V151.282C157.484 151.868 158.037 152.298 158.606 152.154L211.921 138.639C212.667 138.45 213.291 139.225 212.947 139.914L159.19 247.548C158.765 248.398 157.484 248.096 157.484 247.146V181.887C157.484 181.302 156.935 180.872 156.368 181.013L103.248 194.159Z" fill="#3238E0"/>
<defs>
<linearGradient id="paint0_linear_3793_8039" x1="0" y1="446.13" x2="337.6" y2="446.13" gradientUnits="userSpaceOnUse">
<stop stop-color="#181C25"/>
<stop offset="1" stop-color="#3238E0"/>
</linearGradient>
</defs>
</svg>
