<svg width="1093" height="448" viewBox="0 0 1093 448" fill="none" xmlns="http://www.w3.org/2000/svg">
<path d="M571.498 353.233C556.742 353.233 543.587 352.639 532.041 351.456C520.81 350.273 508.941 348.054 496.427 344.797C482.312 341.245 470.444 336.804 460.821 331.477C451.195 325.854 443.335 318.307 437.242 308.834C430.825 298.771 427.615 287.524 427.615 275.091V138.79C427.615 122.214 432.269 108.006 441.573 96.1671C450.877 84.3277 463.705 75.7442 480.07 70.4164C495.79 65.3846 510.708 61.8327 524.822 59.7609C539.26 57.3929 554.819 56.209 571.498 56.209C611.282 56.209 647.211 58.5769 679.292 63.3127V96.6114C667.101 93.9474 649.618 91.5793 626.841 89.5076C604.382 87.1398 586.255 85.9558 572.462 85.9558C506.695 85.9558 473.811 103.419 473.811 138.346V274.204C473.811 283.675 476.86 291.963 482.958 299.067C489.37 306.17 498.032 311.349 508.941 314.606C519.209 318.158 529.472 320.673 539.74 322.154C550.004 323.337 561.557 323.93 574.386 323.93C595.881 323.93 618.82 321.266 643.202 315.939V215.155H570.059V184.963H686.511V339.914C644.807 348.793 606.467 353.233 571.498 353.233ZM757.738 60.6488H804.414V348.793H757.738V60.6488ZM975.08 353.233C948.451 353.233 916.688 350.863 879.8 346.129V310.166C917.011 317.566 949.733 321.266 977.963 321.266C1001.71 321.266 1019.03 318.897 1029.93 314.163C1040.84 309.13 1046.3 299.955 1046.3 286.636V249.341C1046.3 236.91 1042.45 228.178 1034.75 223.145C1027.05 218.114 1013.57 215.598 994.328 215.598H957.755C927.278 215.598 905.622 209.975 892.79 198.726C879.957 187.479 873.541 170.016 873.541 146.337V123.25C873.541 107.563 877.231 94.8357 884.611 85.0677C892.31 75.3003 904.981 68.0484 922.625 63.3127C940.591 58.5769 965.135 56.209 996.252 56.209C1017.1 56.209 1043.9 57.8369 1076.62 61.0928V93.5035C1040.04 88.4716 1012.13 85.9558 992.881 85.9558C963.05 85.9558 943.317 88.6198 933.695 93.9474C923.746 99.5712 918.777 108.895 918.777 121.918V154.773C918.777 164.836 922.625 172.236 930.327 176.972C938.345 181.411 951.98 183.631 971.228 183.631H1008.76C1030.25 183.631 1046.94 186 1058.81 190.735C1071 195.47 1079.5 202.723 1084.31 212.491C1089.45 221.963 1092.01 234.839 1092.01 251.116V271.984C1092.01 292.407 1087.84 308.538 1079.5 320.378C1071.48 332.216 1058.97 340.653 1041.96 345.685C1024.96 350.717 1002.66 353.233 975.08 353.233Z" fill="white"/>
<path d="M989.009 448C984.121 448 979.764 447.874 975.939 447.623C972.22 447.372 968.289 446.901 964.145 446.21C959.469 445.457 955.538 444.515 952.35 443.385C949.162 442.192 946.559 440.59 944.54 438.581C942.415 436.446 941.352 434.06 941.352 431.423V402.507C941.352 398.991 942.893 395.977 945.974 393.465C949.056 390.954 953.306 389.133 958.725 388.003C963.932 386.935 968.873 386.182 973.548 385.742C978.33 385.24 983.484 384.989 989.009 384.989C1002.18 384.989 1014.09 385.491 1024.71 386.496V393.56C1020.67 392.995 1014.88 392.492 1007.34 392.053C999.9 391.55 993.897 391.299 989.328 391.299C967.545 391.299 956.653 395.004 956.653 402.413V431.234C956.653 433.244 957.663 435.002 959.682 436.509C961.807 438.016 964.676 439.115 968.289 439.805C971.689 440.559 975.089 441.093 978.489 441.407C981.89 441.658 985.715 441.783 989.965 441.783C997.085 441.783 1004.68 441.218 1012.76 440.088V418.708H988.531V412.303H1027.1V445.174C1013.29 447.058 1000.59 448 989.009 448Z" fill="white"/>
<path d="M829.357 385.93H848.005L904.269 436.414V385.93H917.817V447.057H899.169L842.905 395.725V447.057H829.357V385.93Z" fill="white"/>
<path d="M787.175 385.93H802.635V447.057H787.175V385.93Z" fill="white"/>
<path d="M671.993 385.93H690.641L746.905 436.414V385.93H760.453V447.057H741.804L685.541 395.725V447.057H671.993V385.93Z" fill="white"/>
<path d="M629.811 385.93H645.271V447.057H629.811V385.93Z" fill="white"/>
<path d="M492.526 385.93H515.637L548.79 436.791L549.268 436.885L580.667 385.93H602.981V447.057H589.434V395.349H588.637L555.325 447.057H541.458L507.19 395.349H506.393V447.057H492.526V385.93Z" fill="white"/>
<path d="M157.579 2.26192L157.419 50.7926C157.413 52.9089 156.414 54.8994 154.721 56.1698L47.7064 136.495C46.0076 137.77 45.0079 139.77 45.0079 141.894L45.0091 284.088C45.0092 298.216 51.6437 311.525 62.9262 320.029L155.091 389.497C156.691 390.704 158.897 390.707 160.5 389.504L274.588 303.943C285.922 295.443 292.592 282.103 292.592 267.936V238.655C292.592 236.801 290.474 235.742 288.991 236.855L161.169 332.769C159.686 333.882 157.568 332.824 157.568 330.969V282.608C157.568 280.482 158.57 278.48 160.271 277.206L334 147.015C335.484 145.903 337.6 146.962 337.6 148.816V267.951C337.6 296.282 324.261 322.961 301.597 339.961L161.849 444.78C159.446 446.582 156.142 446.58 153.741 444.775L35.9144 356.167C13.3027 339.163 0.00120526 312.517 0.00102871 284.225L1.31822e-10 119.379C-1.32567e-05 117.255 0.999864 115.254 2.69898 113.979L153.978 0.454587C155.464 -0.6607 157.585 0.403811 157.579 2.26192Z" fill="white"/>
<path d="M103.249 194.159C102.503 194.344 101.884 193.571 102.227 192.884L155.779 85.496C156.203 84.6455 157.484 84.9473 157.484 85.8977V151.282C157.484 151.869 158.037 152.298 158.606 152.154L211.921 138.639C212.668 138.45 213.292 139.225 212.947 139.914L159.19 247.549C158.765 248.399 157.484 248.096 157.484 247.146V181.887C157.484 181.302 156.936 180.872 156.368 181.013L103.249 194.159Z" fill="white"/>
</svg>
