<svg width="1536" height="250" viewBox="0 0 1536 250" fill="none" xmlns="http://www.w3.org/2000/svg">
<path d="M555.938 208.332C542.153 208.332 525.71 207.003 506.611 204.346V184.167C525.877 188.319 542.817 190.395 557.433 190.395C569.723 190.395 578.691 189.066 584.338 186.409C589.985 183.586 592.809 178.437 592.809 170.963V150.036C592.809 143.061 590.816 138.161 586.83 135.338C582.843 132.515 575.868 131.103 565.903 131.103H546.969C531.191 131.103 519.981 127.947 513.337 121.636C506.694 115.325 503.372 105.526 503.372 92.2391V79.2845C503.372 70.482 505.282 63.3404 509.102 57.8596C513.088 52.3788 519.648 48.3098 528.783 45.6524C538.084 42.9951 550.789 41.6664 566.899 41.6664C577.695 41.6664 591.563 42.5798 608.504 44.4068V62.593C589.57 59.7696 575.121 58.3579 565.156 58.3579C549.71 58.3579 539.495 59.8526 534.513 62.8421C529.364 65.9978 526.79 71.2294 526.79 78.5371V96.9725C526.79 102.619 528.783 106.771 532.769 109.429C536.921 111.92 543.98 113.166 553.945 113.166H573.377C584.504 113.166 593.141 114.494 599.286 117.152C605.597 119.809 609.998 123.878 612.49 129.359C615.147 134.674 616.476 141.898 616.476 151.033V162.742C616.476 174.202 614.316 183.253 609.998 189.897C605.846 196.54 599.369 201.274 590.566 204.097C581.764 206.92 570.221 208.332 555.938 208.332Z" fill="#3238E0"/>
<path d="M443.42 44.157H467.586V205.84H443.42V44.157Z" fill="#3238E0"/>
<path d="M347.005 208.332C339.365 208.332 332.555 208 326.576 207.336C320.763 206.671 314.618 205.426 308.141 203.599C300.833 201.606 294.688 199.114 289.706 196.125C284.723 192.969 280.654 188.734 277.498 183.419C274.177 177.773 272.516 171.461 272.516 164.486V88.0039C272.516 78.7032 274.924 70.7312 279.741 64.0878C284.557 57.4444 291.2 52.628 299.671 49.6384C307.809 46.815 315.532 44.822 322.839 43.6594C330.313 42.3307 338.368 41.6664 347.005 41.6664C367.599 41.6664 386.201 42.9951 402.809 45.6524V64.3369C396.498 62.8422 387.446 61.5135 375.654 60.3509C364.028 59.0222 354.645 58.3579 347.503 58.3579C313.456 58.3579 296.432 68.1569 296.432 87.7548V163.988C296.432 169.302 298.01 173.953 301.165 177.939C304.487 181.925 308.971 184.831 314.618 186.658C319.933 188.651 325.248 190.063 330.562 190.893C335.877 191.558 341.856 191.89 348.5 191.89C359.627 191.89 371.502 190.395 384.125 187.405V130.854H346.257V113.913H406.546V200.858C384.955 205.841 365.108 208.332 347.005 208.332Z" fill="#3238E0"/>
<path d="M1475.82 208.332C1468.18 208.332 1461.37 208 1455.39 207.336C1449.58 206.671 1443.44 205.426 1436.96 203.599C1429.65 201.606 1423.51 199.114 1418.52 196.125C1413.54 192.969 1409.47 188.734 1406.32 183.419C1402.99 177.773 1401.33 171.461 1401.33 164.486V88.0039C1401.33 78.7032 1403.74 70.7312 1408.56 64.0878C1413.37 57.4444 1420.02 52.628 1428.49 49.6384C1436.63 46.815 1444.35 44.822 1451.66 43.6594C1459.13 42.3307 1467.19 41.6664 1475.82 41.6664C1496.42 41.6664 1515.02 42.9951 1531.63 45.6524V64.3369C1525.32 62.8422 1516.26 61.5135 1504.47 60.3509C1492.85 59.0222 1483.46 58.3579 1476.32 58.3579C1442.27 58.3579 1425.25 68.1569 1425.25 87.7548V163.988C1425.25 169.302 1426.83 173.953 1429.98 177.939C1433.31 181.925 1437.79 184.831 1443.44 186.658C1448.75 188.651 1454.07 190.063 1459.38 190.893C1464.7 191.558 1470.67 191.89 1477.32 191.89C1488.45 191.89 1500.32 190.395 1512.94 187.405V130.854H1475.08V113.913H1535.36V200.858C1513.77 205.841 1493.93 208.332 1475.82 208.332Z" fill="#3238E0"/>
<path d="M1226.28 44.157H1255.43L1343.37 177.689V44.157H1364.55V205.84H1335.4L1247.46 70.0662V205.84H1226.28V44.157Z" fill="#3238E0"/>
<path d="M1160.35 44.157H1184.52V205.84H1160.35V44.157Z" fill="#3238E0"/>
<path d="M980.32 44.157H1009.47L1097.41 177.689V44.157H1118.59V205.84H1089.44L1001.5 70.0662V205.84H980.32V44.157Z" fill="#3238E0"/>
<path d="M914.389 44.157H938.554V205.84H914.389V44.157Z" fill="#3238E0"/>
<path d="M699.81 44.157H735.933L787.751 178.685L788.499 178.935L837.577 44.157H872.454V205.84H851.279V69.0696H850.033L797.965 205.84H776.291L722.729 69.0696H721.484V205.84H699.81V44.157Z" fill="#3238E0"/>
<path d="M88.3032 1.26752L88.2138 28.4629C88.2099 29.6488 87.6502 30.7642 86.7017 31.4761L26.7334 76.4881C25.7815 77.2026 25.2213 78.3235 25.2213 79.5138L25.2219 159.195C25.222 167.113 28.9398 174.571 35.2622 179.336L86.909 218.264C87.8059 218.94 89.0417 218.942 89.9403 218.268L153.872 170.322C160.223 165.559 163.961 158.083 163.961 150.145V133.736C163.961 132.697 162.774 132.104 161.943 132.728L90.3151 186.475C89.4838 187.099 88.2971 186.506 88.2971 185.467V158.366C88.2971 157.175 88.8583 156.053 89.8116 155.339L187.165 82.3834C187.996 81.7604 189.182 82.3536 189.182 83.3926V150.153C189.182 166.029 181.708 180.979 169.007 190.505L90.6962 249.243C89.3496 250.253 87.4977 250.252 86.1524 249.24L20.1255 199.587C7.45451 190.058 0.000675399 175.126 0.000576462 159.272L0 66.8971C-7.4287e-06 65.7066 0.560298 64.5856 1.51244 63.8711L86.2852 0.254739C87.118 -0.37024 88.3066 0.226285 88.3032 1.26752Z" fill="url(#paint0_linear_3053_973)"/>
<path d="M57.8575 108.8C57.4399 108.903 57.0929 108.47 57.2849 108.085L87.294 47.9075C87.5317 47.4309 88.2499 47.6 88.2499 48.1326V84.7721C88.2499 85.101 88.5595 85.3419 88.8782 85.2611L118.755 77.6875C119.173 77.5814 119.523 78.0157 119.33 78.4018L89.2056 138.718C88.9677 139.194 88.2499 139.025 88.2499 138.492V101.922C88.2499 101.595 87.9423 101.354 87.6243 101.433L57.8575 108.8Z" fill="#3238E0"/>
<defs>
<linearGradient id="paint0_linear_3053_973" x1="0" y1="250" x2="189.182" y2="250" gradientUnits="userSpaceOnUse">
<stop stop-color="#181C25"/>
<stop offset="1" stop-color="#3238E0"/>
</linearGradient>
</defs>
</svg>
