<svg width="48" height="48" viewBox="0 0 48 48" fill="none" xmlns="http://www.w3.org/2000/svg">
<path d="M8.23817 42.299C7.53317 42.299 6.93417 42.0543 6.44117 41.565C5.94784 41.076 5.70117 40.475 5.70117 39.762V32.94C5.70117 32.3206 5.89384 31.779 6.27917 31.315C6.66417 30.8513 7.17051 30.533 7.79817 30.36L13.5087 29.0955C14.0297 28.9971 14.5368 29.0225 15.0302 29.1715C15.5232 29.3208 15.9682 29.6068 16.3652 30.0295L21.1752 34.965C22.5955 34.213 23.9592 33.3338 25.2662 32.3275C26.5728 31.3215 27.827 30.1971 29.0287 28.9545C30.1633 27.8528 31.2 26.6926 32.1387 25.474C33.0773 24.255 33.9642 22.9441 34.7992 21.5415L29.7512 16.563C29.4128 16.2486 29.192 15.8658 29.0887 15.4145C28.9853 14.9635 28.975 14.4568 29.0577 13.8945L30.4077 7.78596C30.565 7.1583 30.8482 6.65196 31.2572 6.26696C31.6662 5.88163 32.1718 5.68896 32.7742 5.68896H39.7742C40.4872 5.68896 41.0882 5.93563 41.5772 6.42896C42.0665 6.92196 42.3112 7.52496 42.3112 8.23796C42.3112 12.1446 41.3678 16.1261 39.4812 20.1825C37.5945 24.2391 34.9187 28 31.4537 31.465C27.9963 34.9223 24.2413 37.5923 20.1887 39.475C16.1363 41.3576 12.1528 42.299 8.23817 42.299Z" fill="#5B61FF"/>
</svg>
