<svg width="48" height="48" viewBox="0 0 48 48" fill="none" xmlns="http://www.w3.org/2000/svg">
<path d="M45 24C45 29.5695 42.7875 34.911 38.8492 38.8492C34.911 42.7875 29.5695 45 24 45C18.4305 45 13.089 42.7875 9.15076 38.8492C5.21249 34.911 3 29.5695 3 24C3 18.4305 5.21249 13.089 9.15076 9.15076C13.089 5.21249 18.4305 3 24 3C29.5695 3 34.911 5.21249 38.8492 9.15076C42.7875 13.089 45 18.4305 45 24ZM24.7534 18.5033C22.7111 19.3538 18.6266 21.1125 12.5051 23.7795C11.5129 24.1733 10.9905 24.5618 10.9433 24.9397C10.8645 25.5776 11.6651 25.8296 12.7545 26.1735L13.2139 26.3179C14.2849 26.667 15.7286 27.0739 16.4767 27.0896C17.1592 27.1054 17.9179 26.8271 18.7552 26.2496C24.4751 22.3883 27.4283 20.4379 27.612 20.3959C27.7433 20.3644 27.927 20.3276 28.0477 20.4379C28.1711 20.5455 28.158 20.7529 28.1449 20.808C28.0661 21.1466 24.924 24.0656 23.2991 25.5776C22.7925 26.0501 22.4329 26.3835 22.3594 26.4596C22.1975 26.625 22.033 26.7878 21.8659 26.9479C20.8684 27.9086 20.1229 28.6279 21.9053 29.8039C22.7636 30.3709 23.4514 30.8355 24.1365 31.3027C24.882 31.812 25.6275 32.3186 26.5935 32.9539C26.8376 33.1114 27.0739 33.282 27.3023 33.4447C28.1711 34.0642 28.956 34.6208 29.9194 34.5315C30.4811 34.479 31.0613 33.954 31.3552 32.379C32.0509 28.6594 33.4185 20.6033 33.7335 17.2826C33.7527 17.0066 33.7413 16.7293 33.6994 16.4557C33.6747 16.235 33.5678 16.0317 33.4001 15.8861C33.1613 15.7212 32.8765 15.6358 32.5864 15.642C31.7989 15.6551 30.5835 16.0778 24.7534 18.5033Z" fill="#0088CC"/>
</svg>
