<svg width="48" height="48" viewBox="0 0 48 48" fill="none" xmlns="http://www.w3.org/2000/svg">
<path fill-rule="evenodd" clip-rule="evenodd" d="M24.9939 3C13.417 3 4 12.4196 4 23.9998C4 28.5924 5.48106 32.8515 7.99876 36.3086L5.38214 44.1108L13.4539 41.5311C16.7738 43.7286 20.7356 45 25.0061 45C36.583 45 46 35.58 46 24.0002C46 12.42 36.583 3.00035 25.0061 3.00035L24.9939 3ZM19.1312 13.667C18.724 12.6917 18.4154 12.6548 17.7986 12.6297C17.5885 12.6175 17.3544 12.6053 17.0949 12.6053C16.2924 12.6053 15.4533 12.8398 14.9472 13.3583C14.3303 13.9879 12.7997 15.4568 12.7997 18.4693C12.7997 21.4818 14.9966 24.3953 15.2927 24.8029C15.6013 25.2099 19.5757 31.4815 25.7466 34.0376C30.5723 36.0375 32.0043 35.8521 33.1026 35.6176C34.7069 35.272 36.7189 34.0863 37.225 32.6547C37.7311 31.2223 37.7311 30 37.5827 29.7408C37.4347 29.4816 37.0271 29.3338 36.4102 29.0248C35.7934 28.7161 32.7939 27.2346 32.2262 27.037C31.6706 26.8273 31.1401 26.9015 30.7207 27.4942C30.1282 28.3213 29.5483 29.161 29.0791 29.6669C28.7088 30.0621 28.1037 30.1115 27.598 29.9014C26.9191 29.6178 25.0187 28.9506 22.6734 26.8642C20.859 25.2472 19.6248 23.235 19.2671 22.6302C18.909 22.0131 19.2301 21.6546 19.5137 21.3215C19.8223 20.9386 20.1184 20.6671 20.427 20.309C20.7356 19.9511 20.9084 19.7658 21.1059 19.3459C21.316 18.9386 21.1675 18.5188 21.0195 18.2101C20.8715 17.9014 19.6374 14.8889 19.1312 13.667Z" fill="#2CB742"/>
</svg>
